<svg width="52" height="51" viewBox="0 0 52 51" fill="none" xmlns="http://www.w3.org/2000/svg">
<g opacity="0.25">
<path opacity="0.25" d="M26 50C39.8071 50 51 39.031 51 25.5C51 11.969 39.8071 1 26 1C12.1929 1 1 11.969 1 25.5C1 39.031 12.1929 50 26 50Z" stroke="#33A0FF" stroke-width="2"/>
</g>
<path fill-rule="evenodd" clip-rule="evenodd" d="M28.9361 19.538C29.58 19.5387 30.2099 19.7252 30.7504 20.0751C31.2908 20.4251 31.7187 20.9236 31.9827 21.5109C32.2466 22.0981 32.3355 22.7491 32.2386 23.3856C32.1416 24.0221 31.863 24.617 31.4361 25.099C30.8231 25.79 25.5962 30.6831 25.5962 30.6831C25.5962 30.6831 20.3582 25.79 19.7452 25.088C19.204 24.4806 18.9063 23.6946 18.9092 22.8811C18.9243 22.0043 19.2832 21.1686 19.9086 20.5539C20.534 19.9392 21.3758 19.5949 22.2527 19.5949C23.1295 19.5949 23.9713 19.9392 24.5967 20.5539C25.222 21.1686 25.581 22.0043 25.5962 22.8811C25.5962 22.4419 25.6826 22.007 25.8507 21.6013C26.0187 21.1956 26.2651 20.827 26.5756 20.5165C26.8861 20.206 27.2547 19.9596 27.6605 19.7916C28.0662 19.6235 28.501 19.5371 28.9402 19.5371L28.9361 19.538ZM28.9402 17.3081C27.7339 17.3059 26.5598 17.6974 25.5962 18.423C24.4922 17.6037 23.1243 17.2212 21.7555 17.3493C20.3866 17.4774 19.1134 18.1069 18.1807 19.1169C17.2479 20.1268 16.7213 21.4459 16.7022 22.8206C16.6831 24.1953 17.1728 25.5285 18.0771 26.564C18.7031 27.282 22.8261 31.1421 24.0771 32.3081C24.4901 32.6942 25.0343 32.909 25.5997 32.909C26.165 32.909 26.7092 32.6942 27.1221 32.3081C28.3661 31.1431 32.4721 27.2931 33.1061 26.5761C33.8175 25.7725 34.2817 24.7807 34.443 23.7197C34.6043 22.6588 34.4559 21.5738 34.0155 20.5952C33.5751 19.6165 32.8615 18.7858 31.9605 18.2029C31.0595 17.62 30.0093 17.3096 28.9361 17.309L28.9402 17.3081Z" fill="#33A0FF"/>
</svg>
