<svg width="8" height="16" viewBox="0 0 8 16" fill="none" xmlns="http://www.w3.org/2000/svg">
<path d="M0.258454 8.43162H1.99333V15.5762C1.99333 15.6439 2.02023 15.7089 2.06811 15.7567C2.11599 15.8046 2.18093 15.8315 2.24864 15.8315H5.19102C5.25873 15.8315 5.32367 15.8046 5.37155 15.7567C5.41943 15.7089 5.44634 15.6439 5.44634 15.5762V8.4651H7.44176C7.50432 8.465 7.56468 8.44193 7.61136 8.40026C7.65805 8.3586 7.6878 8.30124 7.69498 8.23909L7.99842 5.60852C8.00255 5.57279 7.99908 5.5366 7.98825 5.5023C7.97741 5.46801 7.95945 5.43639 7.93554 5.40952C7.91164 5.38264 7.88232 5.36113 7.84952 5.34638C7.81672 5.33162 7.78116 5.32397 7.74519 5.32391H5.44319V3.67588C5.44319 3.17886 5.71107 2.92669 6.23844 2.92669H7.74101C7.80872 2.92669 7.87366 2.89979 7.92154 2.85191C7.96942 2.80403 7.99633 2.73909 7.99633 2.67137V0.257406C7.99689 0.19005 7.97081 0.125202 7.92378 0.0769878C7.87674 0.028774 7.81254 0.0011019 7.74519 0L5.67236 0H5.57713C4.62262 0.00336832 3.70131 0.350718 2.98215 0.978352C2.6428 1.27491 2.38242 1.65113 2.22444 2.07321C2.06646 2.49529 2.01581 2.95001 2.07704 3.3965V5.32496H0.255309C0.187595 5.32496 0.122659 5.35186 0.0747781 5.39974C0.0268975 5.44762 7.29882e-10 5.51256 7.29882e-10 5.58027V8.1763C-2.55367e-06 8.2101 0.00669979 8.24356 0.0197263 8.27474C0.0327529 8.30592 0.0518462 8.33421 0.0758877 8.35796C0.0999292 8.38171 0.128443 8.40045 0.159783 8.41309C0.191122 8.42574 0.224663 8.43203 0.258454 8.43162Z" fill="#385C8E"/>
</svg>
