<svg width="15" height="12" viewBox="0 0 15 12" fill="none" xmlns="http://www.w3.org/2000/svg">
<path d="M14.7659 1.42261C14.2107 1.66491 13.6234 1.826 13.0222 1.90091C13.656 1.52506 14.13 0.929775 14.3542 0.22785C13.7615 0.579382 13.1131 0.827142 12.437 0.960447C12.0221 0.516408 11.4831 0.207524 10.8902 0.0739876C10.2974 -0.0595485 9.67804 -0.0115561 9.11283 0.211721C8.54761 0.434999 8.06268 0.823223 7.72114 1.32588C7.37959 1.82854 7.19723 2.42236 7.1978 3.03008C7.19559 3.26206 7.21928 3.49356 7.26844 3.72029C6.06422 3.66117 4.88603 3.34857 3.8109 2.80292C2.73578 2.25727 1.78791 1.49086 1.02927 0.553786C0.639655 1.21968 0.518983 2.0092 0.6919 2.76107C0.864817 3.51294 1.31827 4.17042 1.95964 4.5992C1.48061 4.58649 1.01166 4.45878 0.592333 4.22685V4.26015C0.592981 4.95871 0.834083 5.63575 1.27511 6.17749C1.71615 6.71922 2.33022 7.09263 3.01414 7.23493C2.75507 7.30365 2.48801 7.33758 2.21999 7.33584C2.02764 7.33934 1.83547 7.32208 1.64683 7.28438C1.84219 7.88474 2.21872 8.40985 2.72467 8.7875C3.23062 9.16516 3.84113 9.37681 4.47226 9.39336C3.40202 10.2296 2.08271 10.6836 0.724523 10.683C0.482379 10.6847 0.240376 10.6709 0 10.6416C1.38362 11.5331 2.99582 12.0049 4.64179 11.9998C5.77524 12.0077 6.89896 11.7904 7.94769 11.3603C8.99642 10.9303 9.94925 10.2961 10.7508 9.49474C11.5524 8.69335 12.1868 7.74067 12.6171 6.69204C13.0474 5.64341 13.265 4.51974 13.2574 3.38629C13.2574 3.25208 13.2574 3.12291 13.2463 2.99476C13.8443 2.56756 14.3593 2.03477 14.7659 1.42261Z" fill="#03A9F4"/>
</svg>
