<svg width="21" height="21" viewBox="0 0 21 21" fill="none" xmlns="http://www.w3.org/2000/svg">
<path fill-rule="evenodd" clip-rule="evenodd" d="M20.5988 18.7312L14.2763 12.3795C15.4106 10.7697 15.8988 8.7925 15.6443 6.83968C15.3897 4.88686 14.4109 3.10091 12.9017 1.83567C11.3926 0.57042 9.46328 -0.08181 7.49599 0.00821877C5.5287 0.0982476 3.66702 0.923916 2.27976 2.32171C0.892497 3.71951 0.0808725 5.5874 0.00572559 7.55532C-0.0694213 9.52323 0.597384 11.4476 1.87401 12.9471C3.15063 14.4466 4.94394 15.4119 6.89864 15.6517C8.85333 15.8915 10.8268 15.3883 12.428 14.2418L18.7506 20.5945C18.8722 20.7187 19.0173 20.8176 19.1775 20.8853C19.3377 20.9529 19.5097 20.988 19.6836 20.9886C19.8575 20.9892 20.0298 20.9553 20.1904 20.8887C20.351 20.8221 20.4968 20.7243 20.6193 20.6008C20.7418 20.4774 20.8386 20.3309 20.9039 20.1697C20.9693 20.0086 21.002 19.8361 21.0001 19.6622C20.9982 19.4883 20.9617 19.3166 20.8928 19.1569C20.8239 18.9972 20.724 18.8529 20.5988 18.7322V18.7312ZM7.88054 13.0761C6.83719 13.0819 5.81561 12.7778 4.94529 12.2023C4.07497 11.6268 3.39509 10.8059 2.99182 9.84366C2.58855 8.88138 2.48005 7.821 2.68006 6.79698C2.88008 5.77296 3.37961 4.8314 4.11534 4.09159C4.85107 3.35178 5.78988 2.84703 6.81278 2.64136C7.83567 2.43568 8.89661 2.53835 9.86111 2.93628C10.8256 3.33422 11.6502 4.00954 12.2305 4.87666C12.8108 5.74379 13.1206 6.76362 13.1206 7.80699C13.1206 9.19943 12.5695 10.5353 11.5876 11.5226C10.6057 12.51 9.27296 13.0685 7.88054 13.0761Z" fill="#22262A"/>
</svg>
