<svg width="27" height="9" viewBox="0 0 27 9" fill="none" xmlns="http://www.w3.org/2000/svg">
<path d="M24.9736 8.95238L24.7149 7.62298H21.9081L21.4472 8.95238H19.1454L22.4378 0.672719C22.5144 0.467404 22.6547 0.291823 22.8381 0.171939C23.0215 0.0520562 23.2385 -0.00576267 23.4573 0.00651665H25.2324L27.0001 8.95338L24.9736 8.95238ZM23.7047 2.43923L22.5446 5.78729H24.3576L23.7047 2.43923ZM16.2237 2.55653C16.2237 3.53388 19.3036 3.74303 19.3036 5.99031C19.3036 8.15443 17.0296 8.95037 15.5235 8.95037C14.6676 8.96453 13.8182 8.79794 13.0309 8.46162L13.3594 6.52117C14.2628 7.26033 17.003 7.47102 17.003 6.29759C17.003 5.12416 13.9488 5.09625 13.9488 2.86231C13.9488 0.488761 16.5502 0 17.6446 0C18.3224 0.0173778 18.9929 0.144814 19.63 0.376963L19.3149 2.23421C18.3724 1.70858 16.2217 1.5832 16.2217 2.56054L16.2237 2.55653ZM9.46444 8.95238L10.8442 0.00501281H13.0525L11.6727 8.95238H9.46444ZM4.17016 8.95238L2.25439 1.18904C2.59281 1.40041 2.9157 1.63581 3.22048 1.89334C4.14138 2.68136 4.84207 3.69453 5.25418 4.83435L5.50369 6.15974L7.60932 0.00651665H9.98589L6.47279 8.95338L4.17016 8.95238ZM0.275078 0.250641L0.172441 0.220062L0.275078 0.250641ZM0.0492509 0.18397L0 0.170436L0.0492509 0.18397ZM0.592389 0.358416L0.460928 0.312298L0.592389 0.358416ZM2.12305 1.10282C2.05461 1.06038 1.98609 1.01952 1.91765 0.980506C1.98335 1.02568 2.05111 1.06471 2.12092 1.10783L2.12305 1.10282ZM1.59533 0.805057C1.53578 0.774259 1.47426 0.741567 1.41574 0.712822C1.47221 0.7467 1.53275 0.779272 1.59332 0.81007L1.59533 0.805057ZM1.04605 0.541384L0.924989 0.488749L1.04605 0.541384Z" fill="#494CA3"/>
</svg>
