<svg width="18" height="18" viewBox="0 0 18 18" fill="none" xmlns="http://www.w3.org/2000/svg">
<path d="M5.58261e-08 8.99791C0.000396526 7.21801 0.528572 5.47821 1.5177 3.99845C2.50683 2.5187 3.91252 1.36548 5.55703 0.684569C7.20154 0.00365813 9.01099 -0.17429 10.7567 0.173122C12.5023 0.520534 14.1058 1.37774 15.3643 2.63639C16.6228 3.89504 17.4799 5.4986 17.8271 7.24431C18.1743 8.99001 17.996 10.7995 17.3149 12.4439C16.6338 14.0884 15.4805 15.4937 14.0007 16.4827C12.5208 17.4716 10.7809 17.9997 9.00098 17.9999C7.81887 17.9999 6.64829 17.7671 5.55617 17.3147C4.46406 16.8623 3.47174 16.1993 2.63591 15.3633C1.80008 14.5274 1.13711 13.5351 0.684825 12.443C0.232542 11.3508 -0.000131583 10.18 5.58261e-08 8.99791Z" fill="#FFAF38"/>
</svg>
