<svg width="18" height="18" viewBox="0 0 18 18" fill="none" xmlns="http://www.w3.org/2000/svg">
<path d="M8.99899 18C7.4645 17.9998 5.95554 17.6073 4.61546 16.8597C3.27538 16.1122 2.14869 15.0343 1.34243 13.7287C0.536175 12.4231 0.0771263 10.9332 0.00890079 9.40026C-0.0593247 7.86728 0.265563 6.34206 0.95265 4.96999C1.63974 3.59792 2.66625 2.42469 3.93463 1.56104C5.203 0.697389 6.67107 0.172164 8.19948 0.0356762C9.7279 -0.100811 11.2658 0.15574 12.6672 0.780986C14.0685 1.40623 15.2867 2.37946 16.2061 3.60808H15.0034V4.20951H16.6199C16.7412 4.40094 16.8555 4.59925 16.9618 4.79969H14.402V5.40113H17.2514C17.3396 5.60157 17.4188 5.80212 17.4889 6.00256H13.8007V6.60351H17.6774C18.1646 8.38145 18.0975 10.2659 17.4849 12.0047H13.8007V12.6061H17.2473C17.1571 12.8136 17.06 13.0068 16.9618 13.1983H14.402V13.7997H16.613C16.4797 14.0102 16.3404 14.2117 16.1991 14.4011H15.0034V15.0026H15.7049C14.8603 15.945 13.8266 16.699 12.6712 17.2155C11.5158 17.732 10.2646 17.9991 8.99899 18Z" fill="#E63737"/>
</svg>
