<svg width="237" height="14" viewBox="0 0 237 14" fill="none" xmlns="http://www.w3.org/2000/svg">
<path opacity="0.1" d="M230 5H0V9H230V5Z" fill="#22262A"/>
<path d="M230 5H26V9H230V5Z" fill="#2E90E5"/>
<path d="M26 12C28.7614 12 31 9.76142 31 7C31 4.23858 28.7614 2 26 2C23.2386 2 21 4.23858 21 7C21 9.76142 23.2386 12 26 12Z" fill="#2E90E5"/>
<path d="M26 13C29.3137 13 32 10.3137 32 7C32 3.68629 29.3137 1 26 1C22.6863 1 20 3.68629 20 7C20 10.3137 22.6863 13 26 13Z" stroke="white" stroke-width="2"/>
<path d="M230 12C232.761 12 235 9.76142 235 7C235 4.23858 232.761 2 230 2C227.239 2 225 4.23858 225 7C225 9.76142 227.239 12 230 12Z" fill="#2E90E5"/>
<path d="M230 13C233.314 13 236 10.3137 236 7C236 3.68629 233.314 1 230 1C226.686 1 224 3.68629 224 7C224 10.3137 226.686 13 230 13Z" stroke="white" stroke-width="2"/>
</svg>
