<svg width="39" height="26" viewBox="0 0 39 26" fill="none" xmlns="http://www.w3.org/2000/svg">
<path d="M1.69602 0H37.3044C37.7644 0.0123583 38.2009 0.206068 38.5186 0.539101C38.8363 0.872135 39.0093 1.31733 38.9999 1.77748V23.9953C39.0093 24.4554 38.8363 24.9006 38.5186 25.2336C38.2009 25.5667 37.7644 25.7604 37.3044 25.7727H1.69602C1.23595 25.7604 0.799338 25.5667 0.48167 25.2336C0.164001 24.9006 -0.00898809 24.4554 0.000382746 23.9953V1.77848C-0.00926246 1.31816 0.163721 0.872858 0.481419 0.539602C0.799117 0.206346 1.23576 0.0123575 1.69602 0Z" fill="#F1F1F1"/>
<path d="M0.422604 25.1671C0.150309 24.8382 0.00200633 24.4242 0.00338635 23.9973V1.77848C-0.00625886 1.31816 0.1666 0.872858 0.484298 0.539602C0.801996 0.206346 1.23864 0.0123575 1.6989 0H37.3062C37.7385 0.000969944 38.1531 0.171671 38.4605 0.47553L0.427735 25.1671H0.422604Z" fill="white" fill-opacity="0.73"/>
<path d="M15.0165 18.4166L16.3491 16.0074L15.6069 10.2215H17.4224L17.7156 13.6458L19.4922 10.2215H21.3662L17.0514 18.4166H15.0165ZM9.32377 14.0948C9.60364 12.6862 10.964 12.2392 12.9753 12.2392C13.0953 11.6129 12.6965 11.4558 12.0179 11.4794C11.4196 11.5084 10.8313 11.6449 10.2813 11.8823L10.4401 10.4748C11.1005 10.2696 11.7844 10.1492 12.4752 10.1169C13.732 10.0943 15.1292 10.4955 14.8104 12.1286L14.0323 15.9729H12.2168L12.3356 15.3902C12.1249 15.6077 11.873 15.7813 11.5946 15.9003C11.3161 16.0193 11.0168 16.0815 10.714 16.0835C9.85386 16.0794 9.08809 15.5193 9.3249 14.0903L9.32377 14.0948ZM11.1803 14.0052C11.1232 14.0861 11.0907 14.182 11.0869 14.281C11.083 14.38 11.1079 14.4782 11.1586 14.5633C11.2092 14.6485 11.2833 14.7172 11.3722 14.761C11.461 14.8049 11.5607 14.8217 11.6591 14.8101C11.8837 14.8201 12.1043 14.7486 12.2804 14.6089C12.4566 14.4691 12.5763 14.2708 12.6176 14.0497C12.6413 13.877 12.6755 13.7058 12.7201 13.5372H12.2608C12.0562 13.5182 11.8502 13.5507 11.6615 13.6318C11.4728 13.7129 11.3073 13.8397 11.1803 14.0012V14.0052ZM3.07042 15.9729L4.57122 8.62019H7.96138C8.26359 8.61751 8.56207 8.68745 8.83173 8.82392C9.10139 8.96038 9.33441 9.15946 9.51123 9.40456C9.68805 9.64966 9.80353 9.93355 9.84798 10.2325C9.89243 10.5314 9.8645 10.8365 9.76664 11.1225C9.66906 11.7948 9.33205 12.4093 8.81746 12.8529C8.30287 13.2965 7.6454 13.5398 6.96602 13.5372H5.54819L5.06127 15.9729H3.07042ZM5.83113 12.1286H6.76404C7.03694 12.1068 7.29532 11.9966 7.50037 11.8153C7.70541 11.6339 7.84603 11.3907 7.90094 11.1225C7.94397 11.0121 7.95976 10.8933 7.94699 10.7756C7.93422 10.6578 7.89328 10.5448 7.82761 10.4462C7.76193 10.3477 7.67345 10.2666 7.56969 10.2095C7.46593 10.1523 7.34985 10.1206 7.23144 10.1179H6.2576L5.83113 12.1286Z" fill="#3284AE"/>
<path d="M26.974 14.0902C27.2569 12.6817 28.6316 12.2361 30.6706 12.2361C30.8121 11.6088 30.4082 11.4537 29.7214 11.4763C29.1103 11.5077 28.509 11.6437 27.9438 11.8782L28.1057 10.4707C28.7821 10.2681 29.4806 10.1481 30.1858 10.1138C31.458 10.0912 32.8511 10.492 32.5282 12.124L31.7409 15.9673H29.9233L30.0443 15.3872C29.6039 15.8271 29.008 16.0763 28.3855 16.0804C27.506 16.0794 26.731 15.5203 26.974 14.0902ZM28.8531 14.0011C28.7978 14.0847 28.7677 14.1827 28.7666 14.2829C28.7654 14.3832 28.7932 14.4814 28.8465 14.5662C28.8999 14.6511 28.9764 14.719 29.0672 14.7615C29.158 14.8039 29.2592 14.8195 29.3585 14.806C29.5818 14.816 29.801 14.7443 29.9756 14.6048C30.1502 14.4653 30.2682 14.2671 30.3077 14.0472C30.3477 13.8678 30.3683 13.7109 30.4103 13.5346H29.9663C29.7562 13.5133 29.5441 13.5449 29.3492 13.6262C29.1543 13.7075 28.9827 13.8359 28.8499 14.0001L28.8531 14.0011ZM32.5805 15.9673L34.0834 8.59258H35.9491L34.4268 15.9673H32.5805ZM20.7206 15.9673L22.2194 8.61611H25.6023C25.9037 8.6153 26.2009 8.68632 26.4693 8.82334C26.7377 8.96036 26.9696 9.15944 27.1457 9.40399C27.3217 9.64854 27.4369 9.93141 27.4818 10.2294C27.5266 10.5274 27.4998 10.8319 27.4034 11.1174C27.3058 11.7921 26.9668 12.4084 26.4494 12.8523C25.932 13.2962 25.2711 13.5376 24.5894 13.5316H23.1922L22.6858 15.9663L20.7206 15.9673ZM23.4752 12.124H24.3854C24.6605 12.1028 24.9215 11.9938 25.1297 11.8127C25.3378 11.6315 25.482 11.3879 25.5409 11.1184C25.5817 11.0065 25.5952 10.8866 25.5803 10.7685C25.5654 10.6504 25.5225 10.5374 25.4553 10.4391C25.388 10.3409 25.2982 10.2605 25.1935 10.2039C25.0887 10.1473 24.972 10.1162 24.853 10.1138H23.8811L23.4752 12.124Z" fill="#3CA9C7"/>
</svg>
