<svg width="69" height="79" viewBox="0 0 69 79" fill="none" xmlns="http://www.w3.org/2000/svg">
<path d="M55.6653 16.6279L51.883 21.4856C57.2442 25.6411 60.9388 31.5802 62.2969 38.2259C63.6551 44.8716 62.5869 51.784 59.2861 57.7098C55.9852 63.6356 50.6702 68.1824 44.3048 70.5258C37.9394 72.8692 30.945 72.8541 24.5897 70.4833C18.2344 68.1124 12.9391 63.5427 9.66389 57.6027C6.38865 51.6628 5.35032 44.7458 6.73716 38.106C8.124 31.4662 11.8442 25.5432 17.2232 21.4108C22.6023 17.2784 29.284 15.2103 36.0569 15.5815L30.7353 21.1641L34.6827 24.9312L43.083 16.106L46.8464 12.1536L42.9053 8.40159L34.0864 0L30.3205 3.95243L36.0645 9.42406C27.2542 9.02286 18.625 12.0114 11.95 17.7755C5.27496 23.5397 1.06127 31.6416 0.174789 40.4163C-0.711686 49.191 1.7964 57.9719 7.18363 64.9547C12.5709 71.9374 20.428 76.5915 29.1405 77.9606C30.9382 78.2447 32.7555 78.3876 34.5755 78.388C41.7609 78.3701 48.7614 76.1098 54.6005 71.9225C60.4397 67.7353 64.8262 61.8298 67.1482 55.03C69.4702 48.2302 69.6119 40.8752 67.5534 33.991C65.4949 27.1069 61.3389 21.0369 55.6653 16.6279Z" fill="#FF6875"/>
<path d="M37.8816 61.4777V57.935C42.0824 57.466 46.1684 54.8134 46.1684 49.7755C46.1684 42.9309 39.8042 42.1467 35.1559 41.5744C32.1843 41.2188 29.9086 40.8066 29.9086 39.0062C29.9086 36.5024 33.4387 36.2326 34.9516 36.2326C37.2033 36.2326 39.6063 37.2916 40.4232 38.6419L40.6603 39.0352L45.325 36.8743L45.0943 36.404C44.402 35.0352 43.3789 33.8608 42.1178 32.9875C40.8568 32.1141 39.3976 31.5694 37.8728 31.4027V28.2823H32.4137V31.3875C27.3241 32.144 24.3009 34.963 24.3009 39.005C24.3009 45.5949 30.2843 46.2631 34.6503 46.7535C38.541 47.2124 40.3514 48.1731 40.3514 49.7793C40.3514 52.8391 36.114 53.0774 34.8154 53.0774C31.9246 53.0774 29.1421 51.6351 28.3302 49.7188L28.1297 49.246L23.0641 51.393L23.2658 51.8658C24.7673 55.382 28.0087 57.5845 32.42 58.1052V61.4777H37.8816Z" fill="#FF6875"/>
</svg>
