<svg width="51" height="51" viewBox="0 0 51 51" fill="none" xmlns="http://www.w3.org/2000/svg">
<g opacity="0.25">
<path opacity="0.25" d="M25.5 50C39.031 50 50 39.031 50 25.5C50 11.969 39.031 1 25.5 1C11.969 1 1 11.969 1 25.5C1 39.031 11.969 50 25.5 50Z" stroke="#33A0FF" stroke-width="2"/>
</g>
<path fill-rule="evenodd" clip-rule="evenodd" d="M31.5538 28.455C32.0678 28.4543 32.5657 28.2753 32.9625 27.9485C33.3593 27.6217 33.6305 27.1674 33.7298 26.663L34.8448 21.09C34.9094 20.767 34.9015 20.4337 34.8219 20.1141C34.7423 19.7945 34.5928 19.4966 34.3843 19.2416C34.1757 18.9867 33.9133 18.7811 33.6158 18.6398C33.3183 18.4984 32.9931 18.4247 32.6638 18.424H21.5638V17.309C21.5635 17.0142 21.4465 16.7314 21.2383 16.5226C21.0301 16.3139 20.7476 16.1961 20.4528 16.195H18.2378C17.948 16.2037 17.673 16.3249 17.471 16.533C17.2691 16.741 17.1562 17.0196 17.1562 17.3095C17.1562 17.5994 17.2691 17.878 17.471 18.0861C17.673 18.2941 17.948 18.4153 18.2378 18.424H19.3528V29.569C18.9115 29.5671 18.4796 29.6961 18.1117 29.9398C17.7438 30.1835 17.4566 30.5309 17.2863 30.938C17.1161 31.3452 17.0705 31.7936 17.1554 32.2267C17.2403 32.6597 17.4518 33.0579 17.7631 33.3706C18.0744 33.6833 18.4716 33.8966 18.9042 33.9834C19.3369 34.0702 19.7856 34.0267 20.1934 33.8583C20.6013 33.6899 20.9501 33.4042 21.1954 33.0374C21.4408 32.6706 21.5718 32.2393 21.5718 31.798H29.3378C29.3396 32.2367 29.4713 32.665 29.7163 33.0289C29.9613 33.3928 30.3086 33.6759 30.7144 33.8426C31.1202 34.0092 31.5663 34.0519 31.9964 33.9653C32.4264 33.8786 32.8211 33.6664 33.1307 33.3556C33.4403 33.0448 33.6508 32.6492 33.7358 32.2188C33.8207 31.7884 33.7762 31.3425 33.6079 30.9374C33.4396 30.5323 33.1551 30.186 32.7902 29.9425C32.4253 29.699 31.9965 29.569 31.5578 29.569H21.5708V28.455H31.5538ZM32.6688 20.655L31.5538 26.228H21.5668V20.655H32.6668H32.6688Z" fill="#33A0FF"/>
</svg>
