<svg width="101" height="66" viewBox="0 0 101 66" fill="none" xmlns="http://www.w3.org/2000/svg">
<path d="M100.97 33.9931C100.97 33.9742 100.97 33.9553 100.97 33.9364C100.961 33.3273 100.712 32.7462 100.278 32.3193C99.8434 31.8923 99.258 31.654 98.6488 31.656H98.0391L88.6077 13.4384C88.4114 13.0604 88.1147 12.7438 87.7502 12.5235C87.3857 12.3033 86.9674 12.1878 86.5415 12.1898H70.4492L71.0628 7.32297C71.1633 6.39237 71.0651 5.45104 70.7747 4.56123C70.4842 3.67141 70.0082 2.85339 69.3781 2.16124C68.748 1.46909 67.9782 0.918571 67.1195 0.54611C66.2607 0.17365 65.3327 -0.0122707 64.3968 0.000628041H14.4507C13.8405 0.00389011 13.2531 0.233082 12.802 0.64397C12.3508 1.05486 12.0679 1.61831 12.0078 2.22555L11.5038 6.23445H39.9642C40.4002 6.23219 40.8322 6.31787 41.2343 6.48636C41.6364 6.65485 42.0004 6.90268 42.3045 7.21505C42.6086 7.52742 42.8466 7.8979 43.0043 8.30436C43.162 8.71082 43.2361 9.1449 43.2222 9.58065C43.1945 10.4744 42.8213 11.3225 42.1809 11.9466C41.5406 12.5707 40.6832 12.9221 39.7891 12.9269H30.2973V12.9407H2.42901C1.79737 12.944 1.19157 13.1919 0.738865 13.6324C0.286157 14.0729 0.0217726 14.6717 0.00124758 15.303C-0.00892875 15.6113 0.0432353 15.9186 0.154616 16.2063C0.265996 16.4941 0.434302 16.7564 0.649453 16.9775C0.864604 17.1987 1.12217 17.3741 1.40674 17.4934C1.6913 17.6126 1.99701 17.6732 2.30554 17.6715H39.207C40.0459 17.799 40.809 18.2296 41.3518 18.8817C41.8946 19.5339 42.1795 20.3624 42.1526 21.2105C42.1225 22.1634 41.7257 23.0679 41.0451 23.7354C40.3644 24.403 39.4523 24.782 38.499 24.7935H13.0635C12.4242 24.7969 11.8111 25.0483 11.3535 25.4948C10.8959 25.9414 10.6295 26.5482 10.6106 27.1873C10.6001 27.4989 10.6526 27.8093 10.7649 28.1001C10.8773 28.3909 11.0472 28.656 11.2645 28.8795C11.4818 29.103 11.742 29.2804 12.0295 29.4009C12.317 29.5215 12.6258 29.5827 12.9376 29.581H38.0795C38.9264 29.6978 39.7004 30.1232 40.2529 30.7757C40.8053 31.4281 41.0974 32.2616 41.0729 33.1162C41.0429 34.0737 40.6428 34.9822 39.9567 35.6506C39.2706 36.3191 38.352 36.6955 37.3941 36.7006H8.55448H6.1305C5.49113 36.7039 4.87801 36.9553 4.42041 37.4019C3.96281 37.8484 3.69647 38.4552 3.67754 39.0943C3.66702 39.4059 3.71952 39.7163 3.83188 40.0071C3.94425 40.2979 4.11417 40.563 4.33146 40.7865C4.54875 41.0101 4.80894 41.1874 5.09643 41.3079C5.38391 41.4285 5.69278 41.4897 6.00451 41.488H8.09589L7.27824 50.0476C7.17795 50.9781 7.2763 51.9193 7.5668 52.8089C7.8573 53.6986 8.33333 54.5165 8.96341 55.2085C9.5935 55.9005 10.3633 56.4509 11.2219 56.8233C12.0805 57.1957 13.0084 57.3815 13.9442 57.3687H15.7496C16.1732 59.794 17.4415 61.9911 19.3299 63.5708C21.2182 65.1506 23.6047 66.0112 26.0666 66C28.5708 65.9826 30.996 65.121 32.95 63.5548C34.904 61.9885 36.2726 59.809 36.8347 57.3687H59.3498C61.147 57.3526 62.8809 56.7026 64.2456 55.533C65.501 56.7289 67.1735 57.3875 68.9072 57.3687H69.2776C69.7012 59.794 70.9695 61.9911 72.8578 63.5708C74.7461 65.1506 77.1326 66.0112 79.5946 66C82.0988 65.9826 84.5239 65.121 86.4779 63.5548C88.4319 61.9885 89.8006 59.809 90.3627 57.3687H91.8456C93.7569 57.3319 95.5891 56.5988 96.9983 55.3069C98.4075 54.0151 99.2968 52.2534 99.4992 50.3525L100.956 34.2262C100.956 34.2047 100.956 34.1833 100.956 34.1607C100.956 34.138 100.962 34.0951 100.963 34.0611C100.964 34.0271 100.97 34.012 100.97 33.9931ZM26.1914 61.2163C25.4131 61.2197 24.6421 61.0664 23.9244 60.7653C23.2067 60.4643 22.557 60.0218 22.014 59.4643C21.4711 58.9067 21.0459 58.2455 20.7641 57.5201C20.4822 56.7947 20.3493 56.0199 20.3733 55.242C20.4247 53.6469 21.0919 52.1336 22.2349 51.0198C23.3779 49.9059 24.9079 49.278 26.5038 49.2677C27.2821 49.2643 28.053 49.4177 28.7707 49.7187C29.4884 50.0197 30.1382 50.4622 30.6811 51.0197C31.2241 51.5773 31.6492 52.2385 31.9311 52.9639C32.213 53.6894 32.3459 54.4641 32.3219 55.242C32.2704 56.8372 31.6032 58.3504 30.4603 59.4643C29.3173 60.5781 27.7873 61.2061 26.1914 61.2163ZM79.7219 61.2163C78.9436 61.2197 78.1726 61.0664 77.4549 60.7653C76.7372 60.4643 76.0875 60.0218 75.5445 59.4643C75.0016 58.9067 74.5764 58.2455 74.2945 57.5201C74.0127 56.7947 73.8798 56.0199 73.9038 55.242C73.9552 53.6469 74.6224 52.1336 75.7654 51.0198C76.9084 49.9059 78.4384 49.278 80.0343 49.2677C80.8126 49.2643 81.5835 49.4177 82.3012 49.7187C83.0189 50.0197 83.6687 50.4622 84.2116 51.0197C84.7546 51.5773 85.1797 52.2385 85.4616 52.9639C85.7435 53.6894 85.8764 54.4641 85.8524 55.242C85.8009 56.8372 85.1337 58.3504 83.9907 59.4643C82.8478 60.5781 81.3178 61.2061 79.7219 61.2163ZM94.7433 50.0425C94.6631 50.7284 94.3391 51.3625 93.8303 51.8293C93.3214 52.296 92.6617 52.5642 91.9715 52.585H90.369C89.84 50.2772 88.5414 48.2181 86.6867 46.7465C84.832 45.2749 82.5317 44.4783 80.1641 44.4878C77.754 44.5045 75.4145 45.3029 73.4971 46.7631C71.5796 48.2232 70.1878 50.2661 69.5308 52.585H69.0382C68.7529 52.5914 68.4694 52.5376 68.2063 52.4271C67.9432 52.3167 67.7064 52.1519 67.5112 51.9437C67.3201 51.728 67.1765 51.4745 67.0897 51.1998C67.0029 50.925 66.9748 50.635 67.0073 50.3487L70.0209 16.9622H76.9413L75.8452 29.1199C75.7448 30.0505 75.843 30.9919 76.1334 31.8817C76.4238 32.7715 76.8998 33.5895 77.5299 34.2817C78.16 34.9738 78.9299 35.5243 79.7886 35.8968C80.6473 36.2692 81.5753 36.4552 82.5112 36.4423H95.9704L94.7433 50.0425Z" fill="#FF6875"/>
</svg>
