<svg width="68" height="89" viewBox="0 0 68 89" fill="none" xmlns="http://www.w3.org/2000/svg">
<path d="M0 70.4011V89H67.7907V70.4011C67.788 68.3276 66.9632 66.3397 65.4969 64.8735C64.0307 63.4073 62.0428 62.5824 59.9693 62.5797H7.82142C5.74787 62.5824 3.76001 63.4073 2.29379 64.8735C0.827563 66.3397 0.00266609 68.3276 0 70.4011H0ZM5.21428 70.4011C5.21528 69.71 5.49028 69.0474 5.979 68.5587C6.46772 68.07 7.13027 67.795 7.82142 67.794H10.4286V83.7895H5.21428V70.4011ZM15.6441 67.794H22.3862L33.8954 79.3032L45.4046 67.794H52.1428V83.7895H15.6441V67.794ZM62.5764 70.4011V83.7857H57.3621V67.7902H59.9693C60.6611 67.7912 61.3242 68.0667 61.813 68.5563C62.3019 69.0458 62.5764 69.7093 62.5764 70.4011ZM38.0303 67.794L33.8954 71.9289L29.7605 67.794H38.0303Z" fill="#FF6875"/>
<path d="M53.4023 52.146H57.3659V46.9317H59.9731C62.0466 46.929 64.0345 46.1041 65.5007 44.6379C66.9669 43.1717 67.7918 41.1838 67.7945 39.1103V33.896C67.7942 24.9059 64.2225 16.2841 57.8653 9.92738C51.5081 3.57065 42.8861 -0.000334014 33.896 2.34328e-08C24.9059 0.000334061 16.2841 3.57196 9.92738 9.92916C3.57065 16.2864 -0.000334014 24.9084 2.34328e-08 33.8985L2.34328e-08 39.1128C0.00266612 41.1863 0.827563 43.1742 2.29379 44.6404C3.76001 46.1066 5.74787 46.9315 7.82142 46.9342H11.7712C13.2212 51.0409 15.7859 54.6628 19.1779 57.3943C22.5699 60.1258 26.6554 61.8592 30.9768 62.4002C35.2982 62.9411 39.6849 62.2684 43.6456 60.4574C47.6063 58.6463 50.9847 55.7684 53.4023 52.146ZM59.9731 41.7161H57.2148C57.3119 40.8505 57.3606 39.9801 57.3609 39.109V33.8947C57.3606 33.0236 57.3119 32.1532 57.2148 31.2876H59.968C60.6592 31.2886 61.3217 31.5636 61.8105 32.0523C62.2992 32.541 62.5742 33.2036 62.5752 33.8947V39.109C62.5755 39.801 62.3011 40.4649 61.8122 40.9547C61.3234 41.4445 60.6601 41.7202 59.968 41.7212L59.9731 41.7161ZM33.8954 5.21743C40.1645 5.2255 46.2589 7.28379 51.2491 11.0784C56.2394 14.873 59.8516 20.1956 61.5348 26.2345C61.0196 26.1296 60.4951 26.0768 59.9693 26.0771H56.0183C54.4008 21.502 51.4047 17.541 47.4426 14.7393C43.4805 11.9377 38.7473 10.4333 33.8947 10.4333C29.0422 10.4333 24.309 11.9377 20.3469 14.7393C16.3848 17.541 13.3887 21.502 11.7712 26.0771H7.82142C7.29561 26.0768 6.77111 26.1296 6.25588 26.2345C7.93912 20.1956 11.5513 14.873 16.5416 11.0784C21.5318 7.28379 27.6263 5.2255 33.8954 5.21743ZM48.8682 23.475C47.1823 25.8832 44.9419 27.8506 42.336 29.211C39.73 30.5714 36.835 31.2849 33.8954 31.2914H15.8305C16.3525 27.6663 17.9535 24.2822 20.4251 21.5794C22.8966 18.8766 26.1245 16.9802 29.6886 16.1369C33.2527 15.2937 36.9881 15.5427 40.4088 16.8514C43.8295 18.1601 46.7771 20.4681 48.8682 23.475ZM7.82142 41.7212C7.13027 41.7202 6.46772 41.4452 5.979 40.9565C5.49028 40.4677 5.21528 39.8052 5.21428 39.114V33.8998C5.21528 33.2086 5.49028 32.5461 5.979 32.0573C6.46772 31.5686 7.13027 31.2936 7.82142 31.2926H10.5797C10.4826 32.1583 10.4339 33.0287 10.4336 33.8998V39.114C10.4339 39.9851 10.4826 40.8555 10.5797 41.7212H7.82142ZM15.6428 39.114V36.5069H33.8954C37.1968 36.5008 40.4601 35.8006 43.4735 34.4519C46.4869 33.1032 49.1831 31.136 51.3871 28.6779C51.8938 30.3718 52.1505 32.1305 52.1491 33.8985V39.1128C52.152 41.8188 51.5495 44.4912 50.3858 46.9342H41.7168L39.422 44.6445C37.955 46.1112 35.9654 46.9352 33.891 46.9352C31.8165 46.9352 29.8269 46.1112 28.3599 44.6445L24.6734 48.331C26.8923 50.5498 29.837 51.8939 32.9671 52.1165C36.0972 52.339 39.2025 51.4252 41.713 49.5426V52.146H46.6502C44.0843 54.6596 40.8333 56.3597 37.305 57.0331C33.7767 57.7065 30.1281 57.3232 26.8168 55.9313C23.5055 54.5394 20.6788 52.2009 18.6912 49.2089C16.7036 46.2169 15.6436 42.7048 15.6441 39.1128L15.6428 39.114Z" fill="#FF6875"/>
</svg>
