<svg width="39" height="26" viewBox="0 0 39 26" fill="none" xmlns="http://www.w3.org/2000/svg">
<path d="M1.69618 0H37.3042C37.5314 0.00449964 37.7555 0.0539844 37.9637 0.145129C38.1719 0.236274 38.3601 0.367405 38.5176 0.531312C38.6751 0.695219 38.7988 0.888694 38.8816 1.1004C38.9643 1.3121 39.0044 1.53815 38.9999 1.76541V23.829C39.0089 24.2878 38.8353 24.7313 38.5173 25.0621C38.1992 25.3929 37.7629 25.5839 37.3042 25.5929H1.69618C1.23739 25.5839 0.800973 25.3929 0.482957 25.0621C0.164941 24.7313 -0.00864489 24.2878 0.000352714 23.829V1.76541C-0.00423783 1.53815 0.036021 1.3121 0.118767 1.1004C0.201513 0.888694 0.325105 0.695219 0.482584 0.531312C0.640064 0.367405 0.828285 0.236274 1.03651 0.145129C1.24474 0.0539844 1.46892 0.00449964 1.69618 0Z" fill="#353A40"/>
<path d="M23.0956 16.8607C22.8265 16.7239 22.6051 16.5084 22.4605 16.2434C22.287 15.9191 22.2027 15.5549 22.2162 15.1873C22.2013 14.9367 22.2361 14.6856 22.319 14.4487C22.4018 14.2118 22.5309 13.9937 22.6987 13.807C22.8771 13.6371 23.0884 13.5056 23.3197 13.4209C23.551 13.3361 23.7973 13.2995 24.0432 13.314C24.291 13.2981 24.5395 13.3329 24.7734 13.4164C25.0072 13.4999 25.2215 13.6303 25.4032 13.7996C25.5694 13.9828 25.6972 14.1974 25.7792 14.4308C25.8612 14.6642 25.8957 14.9115 25.8806 15.1584C25.8957 15.5164 25.8259 15.8728 25.6769 16.1987C25.5424 16.4639 25.3329 16.6838 25.0744 16.8309C24.7717 16.991 24.4323 17.0691 24.0901 17.057C23.7479 17.0694 23.4074 17.0022 23.0956 16.8607ZM23.5088 14.4005C23.3776 14.6431 23.3089 14.9144 23.3089 15.1902C23.3089 15.4661 23.3776 15.7374 23.5088 15.98C23.578 16.0551 23.6622 16.1149 23.7557 16.1559C23.8493 16.197 23.9503 16.2186 24.0524 16.2186C24.1546 16.2186 24.2556 16.197 24.3492 16.1559C24.4427 16.1149 24.5267 16.0551 24.5959 15.98C24.7502 15.7283 24.8182 15.4329 24.7894 15.139C24.8113 14.8738 24.7393 14.6095 24.5859 14.392C24.5186 14.3142 24.4345 14.2528 24.34 14.2121C24.2455 14.1714 24.1431 14.1524 24.0403 14.1569C23.939 14.1541 23.8384 14.1744 23.7463 14.2166C23.6541 14.2588 23.5728 14.322 23.5088 14.4005ZM13.4195 17.0203C13.2421 17.0028 13.0695 16.9524 12.9105 16.8717C12.7664 16.793 12.6392 16.6867 12.536 16.559C12.4304 16.4379 12.351 16.2964 12.3029 16.143C12.2405 15.9452 12.2062 15.7395 12.2012 15.5322V13.3761H13.2913V15.5829C13.2864 15.6668 13.2981 15.7511 13.3259 15.8304C13.3537 15.9097 13.397 15.9826 13.4532 16.0451C13.5767 16.1512 13.734 16.2096 13.8969 16.2096C14.0597 16.2096 14.2172 16.1512 14.3407 16.0451C14.3968 15.982 14.44 15.9082 14.4676 15.8284C14.4952 15.7486 14.5066 15.6642 14.5015 15.5799V13.3731H15.5917V15.5292C15.5923 15.7371 15.5579 15.9436 15.4899 16.14C15.4272 16.327 15.3227 16.4969 15.1845 16.6376C15.0626 16.7705 14.9129 16.8746 14.7459 16.9427C14.5003 17.0282 14.2413 17.0691 13.9814 17.063C13.7937 17.0593 13.6066 17.0447 13.4206 17.0193L13.4195 17.0203ZM28.8294 16.9959L27.5061 15.0088V16.9959H26.478V13.3771H27.4959L28.8284 15.3786V13.3771H29.8585V16.9959H28.8294ZM18.6728 16.9959L17.3497 15.0088V16.9959H16.3216V13.3771H17.3395L18.6708 15.3786V13.3771H19.7009V16.9959H18.6728ZM20.4745 16.9865V13.3741H21.5738V16.9865H20.4745ZM12.1228 11.9164C11.8871 11.6722 11.7472 11.3517 11.7288 11.0128L12.7691 10.9467C12.78 11.0879 12.8269 11.2235 12.9054 11.3413C12.9622 11.4143 13.0357 11.4724 13.1197 11.5108C13.2037 11.5493 13.2957 11.5672 13.3879 11.5625C13.5182 11.5712 13.6472 11.5306 13.7494 11.4492C13.7876 11.4189 13.8186 11.3806 13.8401 11.3369C13.8616 11.2931 13.873 11.245 13.8736 11.1962C13.8742 11.1474 13.8639 11.0993 13.8434 11.0551C13.823 11.0108 13.793 10.9714 13.7555 10.9402C13.5863 10.8306 13.3952 10.759 13.1956 10.7305C12.8236 10.6682 12.4721 10.5178 12.1706 10.2911C12.0712 10.2046 11.9922 10.0968 11.9394 9.97603C11.8866 9.85528 11.8613 9.72456 11.8652 9.59283C11.8657 9.40583 11.9205 9.22291 12.023 9.06648C12.139 8.892 12.3046 8.75641 12.4984 8.67682C12.7757 8.5706 13.0719 8.52228 13.3687 8.53517C13.732 8.51094 14.0937 8.60127 14.4028 8.79362C14.5276 8.8923 14.6298 9.01665 14.7028 9.15794C14.7758 9.29922 14.818 9.45438 14.8263 9.6132L13.7961 9.67533C13.7826 9.54007 13.7213 9.41396 13.6231 9.31996C13.5192 9.24064 13.3902 9.20138 13.2597 9.20913C13.1573 9.20167 13.0555 9.23095 12.9727 9.29163C12.9422 9.31602 12.9176 9.34682 12.9008 9.38209C12.8841 9.41736 12.8756 9.45587 12.876 9.49491C12.8768 9.5254 12.8844 9.55526 12.8984 9.58239C12.9123 9.60952 12.9321 9.63353 12.9564 9.65197C13.0676 9.72275 13.193 9.76783 13.3238 9.78418C13.6776 9.84969 14.0224 9.95694 14.3509 10.1038C14.5361 10.1925 14.6925 10.3319 14.8018 10.5058C14.8963 10.6679 14.945 10.8526 14.9423 11.0401C14.9436 11.268 14.8781 11.4912 14.754 11.6823C14.6263 11.8795 14.4433 12.0346 14.2278 12.1281C13.9577 12.2371 13.6678 12.2892 13.3767 12.2802C12.9272 12.3272 12.4771 12.196 12.1228 11.9154V11.9164ZM28.8304 12.2116L27.5072 10.224V12.2116H26.4791V8.59332H27.497L28.8294 10.5953V8.59332H29.8595V12.2116H28.8304ZM24.8861 12.2116L24.3018 11.1053C24.2548 11.0003 24.1874 10.9059 24.1034 10.8274C24.0251 10.7714 23.9309 10.7418 23.8346 10.7429H23.7379V12.2116H22.6395V8.59332H24.4606C24.7218 8.58307 24.9831 8.61285 25.2352 8.68179C25.4123 8.73964 25.5647 8.85522 25.6679 9.01032C25.781 9.18446 25.8382 9.38923 25.8318 9.5968C25.8363 9.77816 25.7931 9.95777 25.7065 10.1172C25.6226 10.2621 25.5036 10.3832 25.3605 10.4701C25.2409 10.538 25.1113 10.5869 24.9766 10.6147C25.0776 10.6445 25.1737 10.689 25.2617 10.7469C25.3271 10.8035 25.3856 10.8678 25.4358 10.9383C25.4939 11.0079 25.5453 11.0831 25.5895 11.1624L26.1188 12.2116H24.8861ZM23.7389 10.058H24.2C24.2977 10.051 24.3945 10.0343 24.4891 10.0088C24.56 9.99425 24.6231 9.95419 24.6663 9.89601C24.7122 9.83545 24.7365 9.76126 24.7355 9.68527C24.7386 9.63503 24.7305 9.58483 24.7116 9.53815C24.6928 9.49148 24.6636 9.44936 24.6265 9.41539C24.5047 9.34054 24.3615 9.30816 24.2193 9.32295H23.7389V10.058ZM19.0567 12.2116V8.59332H21.9861V9.36569H20.154V9.94074H21.8559V10.6798H20.154V11.3925H22.0421V12.2116H19.0567ZM16.3571 12.2116V9.48696H15.2425V8.59332H18.566V9.48696H17.4463V12.2116H16.3571ZM8.35139 12.2116V8.59332H11.2809V9.36569H9.44868V9.94074H11.1496V10.6798H9.44061V11.3925H11.3268V12.2116H8.35139ZM6.14563 12.2116L5.52572 9.93279L4.90793 12.2116H3.83611L3.0492 8.59332H4.08748L4.46111 10.6187L5.0087 8.59332H6.04287L6.59145 10.6167L6.96508 8.59332H7.99826L7.21856 12.2116H6.14563Z" fill="#ECD345"/>
<path d="M34.7348 17.0591V8.52932H35.9563V17.0591H34.7348ZM31.6914 17.0591V8.52932H32.9128V17.0591H31.6914Z" fill="#ECD345"/>
</svg>
